# xmcd
#
# Track frame offsets: 
#        300
#        18623
#        37963
#        52902
#        66275
#        93385
#        117313
#        131257
#        150485
#        169087
#        183901
#
# Disc length: 2640 seconds
#
# Revision: 2
# Processed by: cddbd v1.5.2PL0 Copyright (c) Steve Scherf et al.
# Submitted via: ExactAudioCopy v1.0b1
#
DISCID=870a4c0b
DTITLE=Albert Cummings - From The Heart
DYEAR=2008
DGENRE=General Blues
TTITLE0=Your Own Way
TTITLE1=The Long Way
TTITLE2=Regular Man
TTITLE3=Tell It Like It Is
TTITLE4=Together As One
TTITLE5=Barrel House Blues
TTITLE6=I've Got Feelings Too
TTITLE7=Living On The Highway Now
TTITLE8=Ready As I'll Ever Be
TTITLE9=Rock Me Baby
TTITLE10=Beautiful Bride
EXTD=Featuring Chris Layton and Tommy Shannon (Double Trouble) with Re
EXTD=ese Wynans on keyboards and Johnny Moeller on rhythm guitar.
EXTT0=
EXTT1=
EXTT2=
EXTT3=
EXTT4=
EXTT5=
EXTT6=
EXTT7=
EXTT8=
EXTT9=
EXTT10=
PLAYORDER=
